<svg xmlns="http://www.w3.org/2000/svg" viewBox="0 0 106.648 64.41"><defs><style>.a{fill:#252f3e;}.b{fill:#f90;}</style></defs><g transform="translate(0.001 -11)"><path class="a" d="M27.629,34.393a10.916,10.916,0,0,0,.391,3.188,19.157,19.157,0,0,0,1.135,2.58,1.567,1.567,0,0,1,.249.824,1.427,1.427,0,0,1-.673,1.075l-2.235,1.5a1.684,1.684,0,0,1-.922.322,1.628,1.628,0,0,1-1.064-.5A11.073,11.073,0,0,1,23.232,41.7c-.355-.609-.709-1.289-1.1-2.113A13.055,13.055,0,0,1,11.7,44.531a9.662,9.662,0,0,1-7.094-2.58,9.255,9.255,0,0,1-2.624-6.879,9.26,9.26,0,0,1,3.228-7.379c2.164-1.862,5.037-2.8,8.689-2.8a27.644,27.644,0,0,1,3.759.287c1.311.18,2.659.467,4.079.789V23.36c0-2.722-.567-4.621-1.666-5.732-1.135-1.111-3.051-1.649-5.781-1.649a15.888,15.888,0,0,0-3.83.467,27.929,27.929,0,0,0-3.83,1.218,10.3,10.3,0,0,1-1.242.467,2.183,2.183,0,0,1-.567.107c-.5,0-.744-.358-.744-1.111V15.37a2.279,2.279,0,0,1,.249-1.253,2.673,2.673,0,0,1,.993-.753,20.362,20.362,0,0,1,4.47-1.613,21.256,21.256,0,0,1,5.532-.68c4.221,0,7.308.966,9.294,2.9,1.951,1.935,2.944,4.872,2.944,8.812V34.391h.067Zm-14.4,5.443a11.408,11.408,0,0,0,3.653-.644A7.884,7.884,0,0,0,20.25,36.9a5.719,5.719,0,0,0,1.206-2.293,12.963,12.963,0,0,0,.355-3.117v-1.5a29.042,29.042,0,0,0-3.264-.609,26.689,26.689,0,0,0-3.335-.216c-2.377,0-4.115.467-5.286,1.433A5.013,5.013,0,0,0,8.19,34.713,5.03,5.03,0,0,0,9.5,38.51,4.883,4.883,0,0,0,13.227,39.837Zm28.483,3.87a1.969,1.969,0,0,1-1.349-.358,2.924,2.924,0,0,1-.744-1.4l-8.336-27.69a6.3,6.3,0,0,1-.32-1.433.782.782,0,0,1,.851-.9H35.29a1.956,1.956,0,0,1,1.384.358,2.937,2.937,0,0,1,.709,1.4L43.342,37.4l5.532-23.716a2.543,2.543,0,0,1,.673-1.4,2.419,2.419,0,0,1,1.42-.358H53.8a2.123,2.123,0,0,1,1.42.358,2.419,2.419,0,0,1,.673,1.4l5.6,24,6.137-24a3.115,3.115,0,0,1,.709-1.4,2.3,2.3,0,0,1,1.384-.358h3.3a.793.793,0,0,1,.886.9,3.6,3.6,0,0,1-.071.573,5.1,5.1,0,0,1-.249.9l-8.547,27.69a2.779,2.779,0,0,1-.744,1.4,2.245,2.245,0,0,1-1.349.358H59.905a2.123,2.123,0,0,1-1.42-.358,2.545,2.545,0,0,1-.673-1.433l-5.5-23.107L46.854,41.916a2.83,2.83,0,0,1-.673,1.433,2.182,2.182,0,0,1-1.42.358Zm45.578.966a23.3,23.3,0,0,1-5.461-.644A15.983,15.983,0,0,1,77.748,42.6a2.573,2.573,0,0,1-1.1-1,2.54,2.54,0,0,1-.213-1V38.766c0-.753.284-1.111.815-1.111a1.99,1.99,0,0,1,.638.107c.213.071.531.216.886.358a19.127,19.127,0,0,0,3.9,1.253A21.1,21.1,0,0,0,86.9,39.8a9.49,9.49,0,0,0,5.179-1.182,3.867,3.867,0,0,0,1.844-3.4,3.517,3.517,0,0,0-.958-2.508,8.876,8.876,0,0,0-3.582-1.862l-5.143-1.613a10.81,10.81,0,0,1-5.674-3.655,8.582,8.582,0,0,1-1.773-5.195,8.049,8.049,0,0,1,.958-3.977A9.2,9.2,0,0,1,80.3,13.468a11.2,11.2,0,0,1,3.688-1.862A15.434,15.434,0,0,1,88.46,11a17.8,17.8,0,0,1,2.377.142c.815.107,1.56.251,2.306.393.709.18,1.384.358,2.022.573a7.764,7.764,0,0,1,1.491.644,3.073,3.073,0,0,1,1.064.9,1.94,1.94,0,0,1,.32,1.182v1.684c0,.753-.284,1.146-.815,1.146a3.662,3.662,0,0,1-1.349-.429,16.1,16.1,0,0,0-6.81-1.4,9.087,9.087,0,0,0-4.717,1,3.466,3.466,0,0,0-1.666,3.188,3.407,3.407,0,0,0,1.064,2.544,10.561,10.561,0,0,0,3.9,1.971l5.037,1.613a10.771,10.771,0,0,1,5.5,3.439,8.172,8.172,0,0,1,1.631,5.015,9.3,9.3,0,0,1-.922,4.155A9.632,9.632,0,0,1,96.3,41.914a11.421,11.421,0,0,1-3.937,2.006A16.754,16.754,0,0,1,87.289,44.674Z" transform="translate(2.426)"/><path class="b" d="M96.418,40c-11.669,8.705-28.623,13.326-43.2,13.326A77.723,77.723,0,0,1,.472,33.017c-1.1-1-.107-2.364,1.206-1.575A105.569,105.569,0,0,0,54.457,45.593a104.383,104.383,0,0,0,40.257-8.312C96.667,36.386,98.333,38.57,96.418,40Zm4.859-5.588c-1.491-1.935-9.86-.931-13.655-.467-1.135.142-1.313-.86-.284-1.613,6.668-4.728,17.628-3.368,18.905-1.791,1.278,1.613-.355,12.682-6.6,17.983-.958.824-1.88.393-1.455-.68C99.611,44.3,102.768,36.312,101.277,34.415Z" transform="translate(0 22.081)"/></g></svg>