<svg xmlns="http://www.w3.org/2000/svg" viewBox="0 0 73 76.476"><defs><style>.a{fill:#bdbdbd;}.b{fill:#b71c1c;}.c{fill:#dd2c00;}.d{fill:#eee;}</style></defs><g transform="translate(-3 -2)"><path class="a" d="M39.384,2,3,14.662,8.75,61.8,39.422,78.476l30.83-16.9L76,14.438Z" transform="translate(0)"/><path class="b" d="M56.707,15.245,24,4.135V72.894L51.518,57.811Z" transform="translate(15.5 1.576)"/><path class="c" d="M37.788,4.115,5.181,15.463l5.192,42.582L37.805,72.954l.085-.045V4.15Z" transform="translate(1.61 1.561)"/><path class="a" d="M24,6V22.522L38.909,54.67h7.663Z" transform="translate(15.5 2.949)"/><path class="d" d="M11.013,54.67h7.663L33.586,22.522V6Z" transform="translate(5.914 2.949)"/><path class="a" d="M24,24H34.429v6.952H24Z" transform="translate(15.5 16.238)"/><path class="d" d="M18,24H28.429v6.952H18Z" transform="translate(11.071 16.238)"/></g></svg>