<svg xmlns="http://www.w3.org/2000/svg"  viewBox="0 0 71.402 71.401"><defs><style>.a{fill:#0277bd;}.b{fill:#ffc107;}</style></defs><g transform="translate(-4.563 -5)"><path class="a" d="M41.173,5a40.378,40.378,0,0,0-7.4.69c-7.23,1.259-8.547,3.9-8.547,8.775v7.446H42.141v3.758H16.414C11.461,25.669,7.126,28,5.753,33.6a31.467,31.467,0,0,0,0,17.145c1.231,5,3.942,8.748,8.9,8.748h6.824V49.9c0-5.573,5.047-11.078,10.83-11.078H45.9c4.741,0,9.395-3.5,9.395-8.224V14.464c0-4.583-3.305-8.01-7.925-8.778A31.972,31.972,0,0,0,41.173,5Zm-9.365,7.516a2.818,2.818,0,1,1,0,5.637,2.818,2.818,0,1,1,0-5.637Z" transform="translate(0 0)"/><path class="b" d="M29.684,68.49a40.377,40.377,0,0,0,7.4-.69c7.23-1.259,8.547-3.9,8.547-8.775V51.579H28.717V47.821H54.445c4.953,0,9.288-2.334,10.661-7.927a31.467,31.467,0,0,0,0-17.145c-1.233-5-3.944-8.748-8.9-8.748H49.383v9.59c0,5.573-5.047,11.078-10.83,11.078h-13.6c-4.741,0-9.395,3.5-9.395,8.224V59.025c0,4.583,3.305,8.01,7.925,8.778A31.972,31.972,0,0,0,29.684,68.49Zm9.367-7.516a2.818,2.818,0,1,1,0-5.637,2.818,2.818,0,1,1,0,5.637Z" transform="translate(9.668 7.911)"/></g></svg>